<?xml version="1.0" encoding="utf-8"?>
<!-- Generator: Adobe Illustrator 24.0.1, SVG Export Plug-In . SVG Version: 6.00 Build 0)  -->
<svg version="1.1" id="레이어_1" xmlns="http://www.w3.org/2000/svg" xmlns:xlink="http://www.w3.org/1999/xlink" x="0px"
	 y="0px" viewBox="0 0 724 200" style="enable-background:new 0 0 724 200;" xml:space="preserve">
<g>
	<path d="M19.31,91.71H0.4v-28.5h18.91V45.86C19.31,8.55,37.97,0,70.87,0h7.25v31.61H67.76c-6.47,0-11.14,3.37-11.14,10.88v20.73
		h21.5v28.5h-21.5v104.66h-37.3V91.71z"/>
	<path d="M188.99,179.02h-0.52c-12.44,16.32-30.05,20.98-45.6,20.98c-20.98,0-46.63-10.36-46.63-40.67
		c0-14.25,4.66-37.83,56.73-40.93l34.46-2.07v-6.22c0-15.8-9.84-23.58-26.17-23.58c-15.28,0-24.35,7.77-25.13,19.69h-35.75
		c1.29-20.46,15.8-46.63,62.44-46.63c32.9,0,60.36,12.43,60.36,43v77.2c0,7,0.78,11.66,1.81,16.58h-36.01V179.02z M187.43,138.34
		l-31.09,2.85c-17.1,1.56-22.8,6.74-22.8,16.32c0,11.92,10.88,15.54,23.32,15.54c11.66,0,30.57-6.48,30.57-22.54V138.34z"/>
	<path d="M262.27,1.55h37.31v79.79h0.52c12.44-16.32,25.13-21.76,42.23-21.76c38.34,0,61.66,32.9,61.66,69.95
		c0,37.05-25.13,70.46-62.18,70.46c-17.1,0-32.64-6.47-43.26-22.28h-0.52v18.65h-35.75V1.55z M332.48,91.19
		c-23.32,0-34.2,18.91-34.2,38.86c0,22.28,11.92,39.9,33.16,39.9c22.02,0,33.68-18.39,33.68-39.38
		C365.12,110.36,353.98,91.19,332.48,91.19z"/>
	<path d="M432.7,63.21h35.75v25.65h0.52c6.99-18.91,20.72-29.27,38.34-29.27h5.18v36.27h-8.29c-19.17,0-34.2,11.66-34.2,35.23v65.29
		H432.7V63.21z"/>
	<path d="M551.59,0c11.14,0,21.76,9.59,21.76,21.5c0,11.4-9.84,22.02-21.76,22.02c-12.43,0-21.76-11.14-21.76-21.5
		C529.83,11.14,539.16,0,551.59,0z M532.94,63.21h37.31v133.16h-37.31V63.21z"/>
	<path d="M684.74,114.25c-0.77-18.65-11.66-23.06-21.5-23.06c-23.05,0-25.91,24.35-25.91,41.45c0,17.62,6.22,37.31,25.65,37.31
		c14.25,0,21.51-8.81,23.58-21.76l36.52,1.29c-5.7,29.28-23.31,50.52-59.06,50.52c-43.53,0-65.54-27.98-65.54-68.91
		c0-42.75,24.36-71.5,64.77-71.5c39.64,0,58.55,24.87,60.36,53.11L684.74,114.25z"/>
</g>
</svg>
