<svg xmlns="http://www.w3.org/2000/svg" viewBox="0 0 117.27 32.43"><title>Asset 1</title><g id="Layer_2" data-name="Layer 2"><g id="레이어_1" data-name="레이어 1"><path d="M3.07,14.87H0V10.25H3.07V7.44c0-6.05,3-7.44,8.36-7.44H12.6V5.12H10.92a1.62,1.62,0,0,0-1.8,1.77v3.36H12.6v4.62H9.12v17h-6Z"/><path d="M30.58,29H30.5a8.94,8.94,0,0,1-7.4,3.4c-3.4,0-7.56-1.68-7.56-6.6,0-2.31.76-6.13,9.2-6.63l5.59-.34v-1c0-2.56-1.6-3.82-4.25-3.82-2.47,0-3.94,1.26-4.07,3.19h-5.8c.21-3.32,2.56-7.56,10.13-7.56,5.33,0,9.78,2,9.78,7V29.15a11.76,11.76,0,0,0,.3,2.69H30.58Zm-.25-6.6-5,.46c-2.78.26-3.7,1.1-3.7,2.65,0,1.93,1.76,2.52,3.78,2.52s5-1,5-3.65Z"/><path d="M42.46.25h6V13.19h.09a7.79,7.79,0,0,1,6.84-3.53c6.22,0,10,5.34,10,11.34S61.37,32.43,55.36,32.43a8.06,8.06,0,0,1-7-3.61h-.08v3h-5.8ZM53.85,14.79c-3.78,0-5.55,3.06-5.55,6.3,0,3.61,1.93,6.47,5.38,6.47s5.46-3,5.46-6.39S57.33,14.79,53.85,14.79Z"/><path d="M70.1,10.25h5.79v4.16H76c1.13-3.07,3.36-4.75,6.22-4.75H83v5.88H81.69c-3.11,0-5.54,1.89-5.54,5.72V31.84H70.1Z"/><path d="M89.38,0A3.59,3.59,0,0,1,92.9,3.49a3.53,3.53,0,1,1-7.05.08A3.64,3.64,0,0,1,89.38,0Zm-3,10.25H92.4V31.84H86.35Z"/><path d="M111,18.53c-.13-3-1.9-3.74-3.49-3.74-3.74,0-4.2,3.95-4.2,6.72s1,6,4.16,6c2.31,0,3.48-1.43,3.82-3.53l5.92.21c-.92,4.75-3.78,8.19-9.58,8.19-7,0-10.62-4.54-10.62-11.17,0-6.94,4-11.6,10.5-11.6s9.49,4,9.79,8.61Z"/></g></g></svg>